Encoder : Ratzz

General
Format                           : MPEG-4
Format profile                   : Base Media
Codec ID                         : isom
File size                        : 549 MiB
Duration                         : 1h 20mn
Overall bit rate                 : 951 Kbps
Encoded date                     : UTC 2012-02-18 03:23:47
Tagged date                      : UTC 2012-02-18 03:23:47

Video
ID                               : 1
Format                           : AVC
Format/Info                      : Advanced Video Codec
Format profile                   : High@L3.1
Format settings, CABAC           : Yes
Format settings, ReFrames        : 3 frames
Codec ID                         : avc1
Codec ID/Info                    : Advanced Video Coding
Duration                         : 1h 16mn
Bit rate mode                    : Variable
Bit rate                         : 934 Kbps
Maximum bit rate                 : 17.5 Mbps
Width                            : 1 280 pixels
Height                           : 720 pixels
Display aspect ratio             : 16:9
Frame rate mode                  : Constant
Frame rate                       : 23.976 fps
Color space                      : YUV
Chroma subsampling               : 4:2:0
Bit depth                        : 8 bits
Scan type                        : Progressive
Bits/(Pixel*Frame)               : 0.042
Stream size                      : 513 MiB (93%)
Title                            : Justice League Doom 2012 720p x264 Ratzz
Encoded date                     : UTC 2012-02-18 03:23:47
Tagged date                      : UTC 2012-02-18 03:24:07

Audio
ID                               : 2
Format                           : AAC
Format/Info                      : Advanced Audio Codec
Format profile                   : HE-AAC / LC
Codec ID                         : 40
Duration                         : 1h 16mn
Bit rate mode                    : Variable
Bit rate                         : 64.0 Kbps
Maximum bit rate                 : 72.5 Kbps
Channel(s)                       : 2 channels
Channel positions                : Front: L R
Sampling rate                    : 48.0 KHz / 24.0 KHz
Compression mode                 : Lossy
Stream size                      : 35.2 MiB (6%)
Language                         : English
Encoded date                     : UTC 2012-02-18 03:24:05
Tagged date                      : UTC 2012-02-18 03:24:07

Text
ID                               : 3
Format                           : Timed text
Codec ID                         : tx3g
Duration                         : 1h 20mn
Bit rate mode                    : Variable
Bit rate                         : 63 bps
Stream size                      : 37.1 KiB (0%)
Language                         : English
Encoded date                     : UTC 2012-02-18 03:24:07
Tagged date                      : UTC 2012-02-18 03:24:07


pls seed after download.and comment if you like.
